<?xml version="1.0" encoding="UTF-8"?><svg id="A2" xmlns="http://www.w3.org/2000/svg" viewBox="0 0 70 70"><defs><style>.cls-1{fill:#f3916d;}</style></defs><path class="cls-1" d="m52.46,55.76c-.51-.98-1.05-1.93-1.54-2.92-.17-.35-.36-.53-.77-.53-1.6.02-3.19,0-4.79,0-.15,0-.3.02-.45.03,0,.15-.02.25,0,.35.21,1.04.43,2.07.62,3.12.23,1.25.44,2.5.66,3.79h8.22c-.2-.39-.38-.73-.56-1.08-.47-.92-.92-1.85-1.4-2.77Z"/><path class="cls-1" d="m20.05,52.34c-.09,0-.23.09-.28.18-.44.75-.85,1.5-1.28,2.25-.48.83-.98,1.65-1.46,2.49-.44.77-.85,1.56-1.28,2.36h8.02c.14-.59.29-1.12.39-1.66.22-1.24.41-2.48.62-3.71.11-.62.24-1.23.38-1.92-1.76,0-3.44,0-5.11,0Z"/><path class="cls-1" d="m42.75,55.07c-.17-.89-.34-1.78-.51-2.69-.06-.01-.12-.04-.19-.04-1.79,0-3.57,0-5.36-.01-.36,0-.42.17-.42.48.01,2.13,0,4.26,0,6.39,0,.13.02.26.04.42h7.25c-.03-.25-.04-.46-.08-.66-.24-1.3-.49-2.59-.74-3.88Z"/><path class="cls-1" d="m26.43,59.62h7.25v-7.27h-5.87c-.46,2.43-.92,4.83-1.38,7.27Z"/><path class="cls-1" d="m54.32,43.56h-2.67c-1.7,0-3.4,0-5.1,0-.22,0-.45-.04-.5.29-.09.54-.22,1.07-.31,1.61-.22,1.32-.42,2.65-.65,3.97-.05.3-.15.6-.24.93h5.92c1.17-2.25,2.34-4.48,3.55-6.81Z"/><path class="cls-1" d="m23.99,44.06c-.06-.4-.2-.51-.59-.5-2.32.02-4.65,0-6.97,0-.15,0-.29.02-.56.04,1.32,2.32,2.6,4.56,3.85,6.76h5.47c-.13-.54-.27-1.04-.36-1.54-.29-1.59-.59-3.17-.84-4.76Z"/><path class="cls-1" d="m36.28,50.34h5.98c.02-.11.03-.18.04-.24.19-1.08.37-2.17.57-3.25.2-1.07.42-2.14.65-3.29-2.36,0-4.61,0-6.87,0-.34,0-.39.18-.38.47.01,1.16,0,2.32,0,3.48v2.84Z"/><path class="cls-1" d="m27.82,50.36h5.87v-6.73h-7.14c.43,2.29.85,4.52,1.27,6.73Z"/><path class="cls-1" d="m62.73,49.02c-.23-1.39-.7-2.74-1.07-4.11-.24-.9-.49-1.81-.72-2.72-.43-1.71-.86-3.41-1.28-5.12-.21-.87-.4-1.74-.62-2.6-.11-.45-.27-.9-.42-1.37-.09.05-.15.07-.2.1-.63.46-1.22,1-1.91,1.37-2.25,1.19-4.66,1.19-7.08.69-2.88-.58-5.42-1.93-7.78-3.64-.68-.5-1.3-1.07-1.96-1.63.15-.18.23-.31.33-.39,1.29-1.03,2.68-1.89,4.24-2.48,3.02-1.15,6.08-1.01,9.15-.24,1.3.32,2.57.73,3.85,1.11-.07-1.03-.7-2.79-1.18-3.72-.61-1.19-1.44-2.18-2.43-3.04-1.9-1.66-4.17-2.63-6.55-3.35-2.92-.88-5.92-1.26-8.95-1.4-.47-.02-.94-.02-1.41-.04v-3.86c1.63-.58,2.8-2.12,2.8-3.94,0-2.32-1.88-4.2-4.2-4.2s-4.2,1.88-4.2,4.2c0,1.82,1.17,3.36,2.8,3.94v3.83c-2.91.03-5.81.25-8.69.83-3.25.66-6.37,1.68-8.98,3.83-1.5,1.23-2.64,2.74-3.19,4.63-.16.56-.29,1.12-.44,1.68-.07.28-.16.55-.25.83,1.75-.5,3.39-1.05,5.06-1.45,3.71-.88,7.32-.65,10.69,1.32.89.52,1.71,1.17,2.57,1.77-.16.2-.23.3-.32.38-.52.44-1.04.88-1.58,1.29-2.78,2.09-5.83,3.59-9.33,3.96-3.12.32-5.93-.35-8.12-2.93-.17.59-.34,1.09-.46,1.59-.43,1.74-.84,3.49-1.26,5.23-.27,1.11-.56,2.22-.82,3.34-.36,1.52-.7,3.04-1.04,4.56-.23,1.02-.53,2.03-.62,3.06-.15,1.76.1,3.5.61,5.2.38,1.25.78,2.5,1.26,3.71.65,1.67,1.62,3.17,2.91,4.43,1.11,1.08,2.34,1.9,3.98,1.9,12.7,0,25.39,0,38.09-.01.52,0,1.07-.1,1.57-.28,1.72-.63,2.91-1.93,3.94-3.36,1.11-1.54,1.91-3.25,2.46-5.06.42-1.39.73-2.83.89-4.27.13-1.17.09-2.4-.1-3.57Zm-26.14-15.69c.61.54,1.13.98,1.63,1.45.72.68,1.21,1.5,1.51,2.44.16.51-.23,1.42-.9,1.74-.69.33-1.43.55-2.24.85v-6.48Zm-6.05,2.95c.65-1.1,1.56-1.96,2.57-2.73.05-.04.13-.03.22-.06v6.17c-.93-.12-1.82-.28-2.53-.91-.67-.6-.78-1.6-.26-2.47Zm29.1,17.46c-.1,1.32-.42,2.6-1.01,3.75-.69,1.33-1.57,2.56-2.42,3.8-.13.19-.53.29-.81.29-9.4.01-18.8.01-28.2.01-4.09,0-8.19-.04-12.28.03-.9.01-1.39-.33-1.77-1.04-.6-1.09-1.28-2.15-1.82-3.28-.32-.67-.44-1.44-.65-2.16-.48-1.69-.47-3.42-.23-5.13.18-1.28.44-2.55,1.01-3.74.46-.96.86-1.95,1.32-2.92.26-.53.57-1.04.89-1.54.06-.09.22-.15.34-.18.17-.03.35-.01.52-.01,6.82,0,13.63,0,20.45,0s13.35.03,20.03-.03c.95,0,1.37.36,1.72,1.11.6,1.3,1.26,2.58,1.87,3.89.19.41.32.86.45,1.31.55,1.91.75,3.85.59,5.84Z"/></svg>