<?xml version="1.0" encoding="UTF-8"?><svg id="A3" xmlns="http://www.w3.org/2000/svg" viewBox="0 0 70 70"><defs><style>.cls-1{fill:#f3916d;}.cls-2{fill:#724333;}</style></defs><g id="robot"><circle class="cls-1" cx="35" cy="35" r="29.25"/><path class="cls-2" d="m35,66.19l-4.2.7-3.92-1.6-4.03-.98-3.74-1.8-3.7-1.99-2.97-2.97-2.71-3.17-2.32-3.46-1.52-3.87-1.61-3.82-1.07-4.04.63-4.18-.42-4.16,1.02-4.03.74-4.16,2.69-3.31,2.17-3.49,2.3-3.51,3.58-2.21,3.33-2.42,3.49-2.33,3.92-1.54,4.18-.51,4.17.07,4.1.43,4.09.59,4,1.13,3.54,2.19,3.32,2.42,3.68,2.11,2.75,3.18,2.08,3.64,1.78,3.76,1.02,4.02,1.12,3.99.68,4.14-.8,4.13-1.01,4-.89,4.07-1.99,3.66-2.11,3.6-2.5,3.4-3.88,1.87-3.15,2.68-3.85,1.49-3.89,1.24-3.9,1.55-4.17-.5Zm0-58.5l-4.12,1.29-4.27.2-3.76,1.97-3.55,2.24-2.9,3.01-2.9,2.98-2.23,3.53-1.61,3.86-1.33,4.01-.04,4.22.59,4.14.11,4.31,2.26,3.65,2.01,3.69,3.19,2.75,2.57,3.43,3.69,2.11,4.1,1.07,3.93,1.66,4.25.17,4.14-.86,3.97-1.15,3.94-1.3,3.75-1.91,3.32-2.63,2.58-3.36,2.01-3.69,1.97-3.74,1.15-4.1-.51-4.25-.29-4.12-.68-4.12-1.54-3.9-1.93-3.77-2.98-3-3.43-2.4-3.28-2.64-3.83-1.82-4.21-.53-4.16-1.01Z"/><path class="cls-2" d="m47.47,47.67c-.36-.7-.75-1.38-1.1-2.08-.12-.25-.26-.38-.55-.38-1.14.01-2.28,0-3.42,0-.11,0-.21.02-.32.02,0,.1-.01.18,0,.25.15.74.31,1.48.45,2.23.17.89.31,1.79.47,2.7h5.87c-.15-.28-.27-.52-.4-.77-.33-.66-.66-1.32-1-1.98Z"/><path class="cls-2" d="m24.32,45.22c-.07,0-.16.07-.2.13-.31.53-.61,1.07-.92,1.61-.34.59-.7,1.18-1.04,1.78-.31.55-.6,1.12-.91,1.69h5.73c.1-.42.21-.8.28-1.18.16-.88.29-1.77.44-2.65.08-.44.17-.88.27-1.37-1.26,0-2.46,0-3.65,0Z"/><path class="cls-2" d="m40.54,47.17c-.12-.64-.24-1.27-.37-1.92-.04,0-.09-.03-.13-.03-1.28,0-2.55,0-3.83,0-.25,0-.3.12-.3.35,0,1.52,0,3.04,0,4.56,0,.09.02.19.03.3h5.18c-.02-.18-.03-.33-.05-.47-.17-.93-.35-1.85-.53-2.77Z"/><path class="cls-2" d="m28.88,50.42h5.18v-5.2h-4.19c-.33,1.73-.66,3.45-.99,5.2Z"/><path class="cls-2" d="m48.8,38.95h-1.9c-1.21,0-2.43,0-3.64,0-.16,0-.32-.03-.36.21-.06.39-.16.77-.22,1.15-.16.95-.3,1.89-.46,2.84-.04.22-.11.43-.17.67h4.23c.84-1.61,1.67-3.2,2.53-4.86Z"/><path class="cls-2" d="m27.13,39.31c-.05-.28-.14-.36-.42-.36-1.66.01-3.32,0-4.98,0-.1,0-.21.01-.4.03.94,1.66,1.86,3.26,2.75,4.83h3.91c-.09-.39-.19-.74-.26-1.1-.21-1.13-.42-2.26-.6-3.4Z"/><path class="cls-2" d="m35.91,43.8h4.27c.01-.08.02-.13.03-.17.14-.77.26-1.55.41-2.32.14-.77.3-1.53.46-2.35-1.69,0-3.3,0-4.9,0-.24,0-.28.13-.27.33,0,.83,0,1.66,0,2.48v2.03Z"/><path class="cls-2" d="m29.87,43.81h4.19v-4.81h-5.1c.31,1.64.61,3.23.91,4.81Z"/><path class="cls-2" d="m54.81,42.85c-.16-.99-.5-1.96-.76-2.93-.17-.65-.35-1.29-.52-1.94-.31-1.22-.62-2.44-.92-3.66-.15-.62-.28-1.24-.44-1.86-.08-.32-.2-.64-.3-.98-.06.03-.11.05-.15.07-.45.33-.87.72-1.36.98-1.61.85-3.33.85-5.06.5-2.06-.42-3.87-1.38-5.56-2.6-.49-.35-.93-.77-1.4-1.16.11-.13.16-.22.24-.28.92-.74,1.91-1.35,3.03-1.77,2.16-.82,4.34-.72,6.53-.17.93.23,1.83.52,2.75.79-.05-.74-.5-1.99-.85-2.66-.44-.85-1.03-1.56-1.74-2.17-1.36-1.18-2.98-1.88-4.68-2.39-2.08-.63-4.23-.9-6.39-1-.33-.02-.67-.02-1-.03v-2.76c1.16-.41,2-1.51,2-2.82,0-1.65-1.35-3-3-3s-3,1.35-3,3c0,1.3.84,2.4,2,2.82v2.74c-2.08.02-4.15.18-6.21.59-2.32.47-4.55,1.2-6.41,2.74-1.07.88-1.89,1.96-2.28,3.31-.12.4-.21.8-.31,1.2-.05.2-.12.39-.18.59,1.25-.36,2.42-.75,3.62-1.03,2.65-.63,5.23-.46,7.63.94.64.37,1.22.84,1.84,1.26-.12.14-.16.21-.23.27-.37.31-.74.63-1.13.92-1.99,1.49-4.16,2.57-6.67,2.83-2.23.23-4.24-.25-5.8-2.09-.12.42-.24.78-.33,1.14-.31,1.24-.6,2.49-.9,3.74-.19.79-.4,1.59-.58,2.38-.25,1.08-.5,2.17-.74,3.26-.16.73-.38,1.45-.44,2.19-.11,1.26.07,2.5.43,3.71.27.89.56,1.78.9,2.65.47,1.2,1.15,2.26,2.08,3.16.79.77,1.67,1.35,2.84,1.35,9.07,0,18.14,0,27.21,0,.37,0,.77-.07,1.12-.2,1.23-.45,2.08-1.38,2.82-2.4.79-1.1,1.37-2.32,1.75-3.61.3-.99.52-2.02.63-3.05.09-.84.07-1.71-.07-2.55Zm-18.67-11.2c.44.39.81.7,1.17,1.03.51.48.87,1.07,1.08,1.74.12.36-.17,1.02-.64,1.24-.49.24-1.02.39-1.6.61v-4.63Zm-4.32,2.11c.47-.78,1.12-1.4,1.83-1.95.03-.03.09-.02.16-.04v4.41c-.67-.08-1.3-.2-1.81-.65-.48-.43-.56-1.14-.18-1.76Zm20.78,12.47c-.07.94-.3,1.85-.72,2.68-.49.95-1.12,1.83-1.73,2.72-.1.14-.38.21-.58.21-6.71.01-13.43,0-20.14,0-2.92,0-5.85-.03-8.77.02-.65.01-.99-.24-1.27-.74-.43-.78-.91-1.54-1.3-2.34-.23-.48-.32-1.03-.46-1.54-.34-1.21-.34-2.44-.17-3.67.13-.91.31-1.82.72-2.67.33-.69.62-1.4.95-2.08.18-.38.41-.74.63-1.1.04-.07.16-.11.24-.13.12-.02.25,0,.37,0,4.87,0,9.74,0,14.6,0s9.54.02,14.31-.02c.68,0,.98.26,1.23.8.43.93.9,1.85,1.34,2.78.14.3.23.62.32.93.39,1.36.53,2.75.42,4.17Z"/></g></svg>