<?xml version="1.0" encoding="UTF-8"?><svg id="A1" xmlns="http://www.w3.org/2000/svg" viewBox="0 0 100 100"><defs><style>.cls-1{fill:#ffa6ac;}</style></defs><path class="cls-1" d="m29.92,57.27c-.33-.33-.59-.59-.86-.86-1.57-1.62-3.14-3.24-4.71-4.85-.21-.22-.24-.37-.07-.65,1.56-2.56,3.15-5.11,4.65-7.71,1.84-3.17,3.46-6.45,4.71-9.91.09-.25.17-.51.26-.8-.11-.01-.19-.04-.27-.04-3.12,0-6.24.06-9.35,0-2.32-.05-4.59-.45-6.6-1.74-2.72-1.74-4.37-4.23-5.05-7.36-.73-3.37.17-6.31,2.4-8.89,2.06-2.38,4.64-3.82,7.75-4.26,2.31-.33,4.59-.06,6.8.66.75.25,1.48.59,2.24.82.5.15,1.02.23,1.54.27,5.41.43,10.84.55,16.27.49,3.35-.04,6.71-.07,10.05-.23,3.04-.14,6.08-.44,9.12-.71.98-.08,1.95-.32,2.93-.38.88-.05,1.77,0,2.65.11,2.45.3,4.66,1.19,6.51,2.85,1.68,1.5,2.74,3.39,3.39,5.51.26.84.41,1.72.61,2.58.05.23-.01.32-.25.36-1.57.26-3.14.53-4.7.8-1.22.21-2.45.42-3.72.7,2.36,1.41,4.73,2.82,7.17,4.28-2.15.39-4.22.77-6.29,1.15,0,.03,0,.07,0,.1.74.45,1.49.9,2.23,1.34,1.46.88,2.91,1.77,4.38,2.63.25.15.2.32.14.51-.53,1.52-1,3.07-1.61,4.56-1.4,3.4-3.23,6.55-5.55,9.4-.92,1.14-1.93,2.21-2.85,3.36-3.07,3.86-5.14,8.2-6.16,13.03-.42,1.99-.67,4-.63,6.04,0,.34-.1.4-.42.4-9.66,0-19.31,0-28.97,0-1.55,0-3.06.21-4.48.88-2.92,1.37-5.08,4.41-4.85,7.94.21,3.18,2.52,5.87,5.63,6.42.81.14,1.63.1,2.44-.05.36-.07.73-.1,1.1-.11,1.39-.01,2.78,0,4.17,0,.12,0,.24,0,.36,0,.02.02.03.05.05.07-.17.16-.34.33-.52.48-1.1.95-2.39,1.53-3.77,1.93-3.42.99-6.93,1.25-10.45.99-4.37-.33-7.21-2.75-8.8-6.75-.95-2.4-1.28-4.91-1.31-7.47-.03-2.55.23-5.08.71-7.58.53-2.79,1.34-5.5,2.29-8.17.14-.39.33-.56.73-.62,2.72-.44,5.43-.89,8.15-1.35.25-.04.49-.11.8-.18Zm-8.73-39.74h12.38c-.08-.16-.11-.26-.17-.33-.42-.56-.84-1.11-1.26-1.66-.31-.4-.71-.67-1.18-.86-1.27-.54-2.56-1-3.93-1.22-1.71-.28-3.41-.35-5.1.09-2.68.69-4.59,2.36-5.8,4.78-1.25,2.53-.55,6.17,1.46,8.37,1.43,1.56,3.2,2.37,5.3,2.51.89.06,1.77.02,2.63-.26.76-.25,1.11-.79.98-1.57-.08-.5-.17-1-.33-1.47-.59-1.78-1.53-3.38-2.57-4.93-.77-1.14-1.58-2.25-2.41-3.44Zm5.89,3.12c.08.15.13.24.17.32.74,1.27,1.45,2.55,1.88,3.96.35,1.14.62,2.3.37,3.5-.06.29-.14.57-.21.86.07.02.11.04.14.04,1.71,0,3.43-.01,5.14-.01.18,0,.25-.08.28-.25.13-.83.3-1.65.4-2.48.25-1.9.2-3.8-.29-5.67-.05-.2-.13-.26-.34-.26-2.26,0-4.53,0-6.79,0-.23,0-.46,0-.76,0Z"/><path class="cls-1" d="m42.59,89.81c1.28-.93,2.34-2.01,3.1-3.37.66-1.18.99-2.46,1.11-3.81.17-1.92-.08-3.78-.69-5.6-.36-1.06-.93-2.01-1.71-2.82-.04-.04-.07-.1-.14-.19.17,0,.28-.02.4-.02,11.45,0,22.9,0,34.35-.01,1.27,0,2.53.13,3.77.43.5.12.98.3,1.48.54-2.27,1.11-4.55,2.22-6.82,3.33,0,.03,0,.05,0,.08.31.05.61.1.92.13,2.57.3,5.14.59,7.71.89.89.1,1.78.23,2.67.32.28.03.38.15.45.4.34,1.31.39,2.64.1,3.96-.58,2.69-2.59,5.18-5.88,5.65-.52.07-1.05.09-1.58.09-12.81,0-25.61,0-38.42,0-.27,0-.55,0-.82,0Z"/><path class="cls-1" d="m39.9,82.76c-.9,0-1.79-.02-2.69,0-.5.02-1,.07-1.49.18-1.18.28-2.57-.27-3.41-1.4-1.1-1.49-1.07-3.42.09-5.07,1.46-2.09,4.15-2.91,6.67-2.01,1.89.68,3.35,1.87,4.06,3.79.5,1.37.63,2.81.5,4.27-.02.22-.13.27-.34.26-1.13,0-2.26,0-3.39,0,0,0,0-.02,0-.02Z"/></svg>