<?xml version="1.0" encoding="UTF-8"?><svg id="A3" xmlns="http://www.w3.org/2000/svg" viewBox="0 0 70 70"><defs><style>.cls-1{fill:#f3916d;}.cls-2{fill:#724333;}</style></defs><g id="Layer_6"><circle class="cls-1" cx="35" cy="35" r="29.25"/><path class="cls-2" d="m35,66.19l-4.2.7-3.92-1.6-4.03-.98-3.74-1.8-3.7-1.99-2.97-2.97-2.71-3.17-2.32-3.46-1.52-3.87-1.61-3.82-1.07-4.04.63-4.18-.42-4.16,1.02-4.03.74-4.16,2.69-3.31,2.17-3.49,2.3-3.51,3.58-2.21,3.33-2.42,3.49-2.33,3.92-1.54,4.18-.51,4.17.07,4.1.43,4.09.59,4,1.13,3.54,2.19,3.32,2.42,3.68,2.11,2.75,3.18,2.08,3.64,1.78,3.76,1.02,4.02,1.12,3.99.68,4.14-.8,4.13-1.01,4-.89,4.07-1.99,3.66-2.11,3.6-2.5,3.4-3.88,1.87-3.15,2.68-3.85,1.49-3.89,1.24-3.9,1.55-4.17-.5Zm0-58.5l-4.12,1.29-4.27.2-3.76,1.97-3.55,2.24-2.9,3.01-2.9,2.98-2.23,3.53-1.61,3.86-1.33,4.01-.04,4.22.59,4.14.11,4.31,2.26,3.65,2.01,3.69,3.19,2.75,2.57,3.43,3.69,2.11,4.1,1.07,3.93,1.66,4.25.17,4.14-.86,3.97-1.15,3.94-1.3,3.75-1.91,3.32-2.63,2.58-3.36,2.01-3.69,1.97-3.74,1.15-4.1-.51-4.25-.29-4.12-.68-4.12-1.54-3.9-1.93-3.77-2.98-3-3.43-2.4-3.28-2.64-3.83-1.82-4.21-.53-4.16-1.01Z"/><path class="cls-2" d="m56.04,24.83c-.21.84-.41,1.67-.61,2.5-.41,1.65-.83,3.29-1.23,4.94-.08.32-.11.67-.1,1,.07,2.64-.18,5.23-1.06,7.73-1.42,4.03-3.86,7.3-7.35,9.78-.12.09-.24.18-.39.29.32.59.63,1.16.94,1.73-6.48,4.37-15.8,5.16-23.47,0,.31-.57.62-1.14.93-1.7-.75-.61-1.51-1.15-2.19-1.78-4.6-4.25-6.81-9.51-6.53-15.77.03-.62-.12-1.14-.26-1.69-.54-2.21-1.1-4.42-1.65-6.63-.03-.12-.05-.24-.07-.37.72-.14,1.43-.22,2.11-.41,4.63-1.3,8.59-3.71,11.88-7.21.62-.66,1.25-1.3,1.87-1.96,1.7-1.78,3.84-2.33,6.22-2.23,2.19.09,3.95,1.01,5.44,2.58,1.3,1.36,2.58,2.76,4.02,3.95,2.98,2.44,6.32,4.22,10.12,5.04.43.09.87.14,1.36.22Zm-30.36,22.68c.11-.17.2-.31.28-.45.82-1.42,1.64-2.83,2.45-4.25.15-.27.31-.39.64-.39,3.64.01,7.28.01,10.93,0,.33,0,.48.12.64.39.81,1.42,1.63,2.84,2.45,4.25.08.14.17.28.26.42,2.79-1.48,6.71-7.34,6.8-10.16-1.85-.51-3.7-1.02-5.6-1.54,0,.91,0,1.76,0,2.6,0,1.28-.83,2.1-2.1,2.1-1.18,0-2.36,0-3.53,0-1.43,0-2.21-.77-2.21-2.21,0-1.35,0-2.69,0-4.04,0-.28-.06-.43-.36-.52-4.43-1.17-8.86-2.36-13.28-3.53-.16-.04-.37-.03-.52.04-1.01.44-2.01.89-3.01,1.35-.13.06-.28.21-.3.34-.14.91-.35,1.82-.34,2.72.01,4,1.35,7.51,4.04,10.49.82.91,1.74,1.7,2.8,2.39Zm24.33-14.28c-.05-.54-.08-1.01-.16-1.46-.03-.16-.19-.35-.34-.41-3.34-1.43-6.7-2.82-10.21-3.8-2.42-.68-4.87-1.1-7.38-.49-.85.21-1.71.41-2.56.61,0,.03.01.07.02.1,6.85,1.81,13.7,3.62,20.65,5.45Zm-19.64-15.96c.9.88,1.8,1.77,2.8,2.75-.91.9-1.8,1.79-2.61,2.59.41.42.85.85,1.36,1.37.85-.85,1.74-1.75,2.71-2.72.87.89,1.75,1.79,2.57,2.63.45-.44.89-.87,1.4-1.38-.87-.85-1.77-1.74-2.74-2.68.91-.9,1.8-1.79,2.65-2.62-.44-.45-.87-.9-1.35-1.4-.87.88-1.76,1.77-2.71,2.72-.89-.91-1.78-1.81-2.63-2.67-.47.46-.91.89-1.45,1.42Zm2.18,31.23c.07.26.11.54.21.79.28.71.5.81,1.25.66,1.18-.23,2.26-.71,3.32-1.27.27-.14.31-.31.29-.58-.08-1.25-1.35-1.97-2.33-1.95-1.45.03-2.7,1.09-2.74,2.34Z"/><path class="cls-2" d="m28.83,38.9c-1.5,0-2.77-1.35-2.56-2.83.06-.4.38-.77.62-1.13.06-.08.28-.11.4-.08,1.3.32,2.52.82,3.64,1.55.12.08.22.32.21.47-.15,1.14-1.16,2.02-2.3,2.02Z"/></g></svg>