<?xml version="1.0" encoding="UTF-8"?><svg id="A2" xmlns="http://www.w3.org/2000/svg" viewBox="0 0 70 70"><defs><style>.cls-1{fill:#f3916d;}</style></defs><path class="cls-1" d="m63.46,65.52H6.52s0-.04,0-.06c0-6.27,0-12.54,0-18.81,0-4.29,0-8.58,0-12.87,0-.22,0-.43,0-.69,1.23.29,2.43.57,3.63.85-.05-.43-.13-.82-.13-1.21-.01-2.82-.01-5.64,0-8.46,0-2.77,2.46-4.91,5.19-4.5,1.23.19,2.45.48,3.67.74.26.06.36,0,.35-.25,0-.08,0-.16.02-.24.08-.96.12-1.92.26-2.86.54-3.63,1.52-7.16,2.62-10.66.04-.13.1-.24.15-.37,2.54,1.77,4.97,3.63,7.28,5.67,1.92-3.1,4.03-6.02,6.25-8.88.05.07.1.12.15.19,1.77,2.57,3.45,5.19,4.99,7.9.26.46.26.46.67.11.03-.03.06-.05.09-.08,1.62-1.22,3.23-2.45,4.86-3.66.66-.49,1.36-.93,2.1-1.43,1.35,4.83,2.61,9.63,2.66,14.68.13-.02.23-.03.33-.05.96-.2,1.92-.39,2.87-.61.92-.21,1.85-.36,2.79-.17,2.18.45,3.65,2.26,3.67,4.53.02,2.85,0,5.7,0,8.55,0,.24-.05.49-.08.79.87-.21,1.7-.41,2.54-.61,0,.55,0,1.04,0,1.54,0,7.52,0,15.04,0,22.56,0,2.69-.03,5.38-.04,8.07,0,.09.03.17.05.26Zm-13.48-30.5v-.03c1.28,0,2.56,0,3.84,0,.56,0,1.12,0,1.68,0,1.22,0,2.52-.98,2.51-2.66-.01-2.44,0-4.88,0-7.32,0-.33-.02-.66-.08-.98-.11-.62-.46-1.08-1.1-1.21-.32-.07-.68-.05-1.01,0-.88.16-1.76.35-2.64.54-2.64.55-5.27,1.11-7.91,1.66-.65.14-1.29.29-1.81.74-.9.77-1.47,1.68-1.43,2.93.04,1.28.04,2.56,0,3.84-.03.84.6,2.03,1.7,2.32.49.13,1.02.16,1.54.17,1.57.02,3.14,0,4.71,0Zm-29.15-.04s0,.03,0,.04c1.79,0,3.58-.01,5.37,0,1.77.01,2.87-1.23,2.79-2.78-.06-1.16,0-2.32-.01-3.48,0-.28.01-.57-.06-.83-.41-1.54-1.38-2.53-2.97-2.86-3.03-.63-6.05-1.28-9.08-1.9-.76-.16-1.53-.31-2.3-.37-.81-.06-1.36.44-1.5,1.24-.04.22-.06.46-.06.69,0,1.99,0,3.98,0,5.97,0,.62-.02,1.24.01,1.86.07,1.38,1.08,2.39,2.45,2.42,1.79.03,3.58,0,5.37,0Zm18.23-7.41c.37-1.96,1.4-3.42,2.97-4.53.09-.06.16-.19.18-.29.03-.26.05-.52.04-.78-.06-1.3-.52-2.5-1.02-3.67-1.48-3.51-3.4-6.78-5.43-9.99-.03-.05-.05-.11-.09-.17-.08.08-.12.1-.14.13-1.01,1.5-2.05,2.98-3.02,4.5-1.25,1.94-2.43,3.92-3.36,6.04-.49,1.11-.96,2.22-.92,3.47,0,.27.09.41.31.54,1.57.91,2.64,2.23,3.18,3.97.05.16.09.32.15.51.61-.34,1.24-.33,1.87-.29.3.02.39-.09.42-.38.21-1.91.44-3.81.65-5.72.19-1.74.36-3.47.55-5.21,0-.02.03-.04.08-.09.05.4.11.75.14,1.11.16,1.87.31,3.74.46,5.62.12,1.42.25,2.85.36,4.27.03.4-.04.41.42.39.6-.03,1.18.01,1.72.3.15.08.29.16.48.27Zm-3.8,17.49h0c.32,0,.64,0,.96,0,1,0,2,0,3,0,.16,0,.3-.01.28-.24-.18-1.6-.36-3.19-.54-4.79-.21-1.92-.42-3.83-.63-5.75-.09-.83-.17-1.67-.29-2.5-.1-.66-.42-.91-1.07-.91-1.14,0-2.28.03-3.42-.01-.56-.02-1.03.39-1.09.96-.08.78-.16,1.55-.25,2.32-.17,1.53-.33,3.06-.5,4.59-.22,1.99-.43,3.97-.66,5.96-.03.27.03.37.32.37,1.3-.01,2.6,0,3.9,0Zm-18.19,17.4c0-.11,0-.18,0-.25-.13-1.01-.25-2.02-.38-3.03-.21-1.68-.42-3.37-.63-5.05-.13-1.02-.27-2.04-.39-3.06-.02-.2-.13-.26-.29-.31-1.76-.53-3.51-1.06-5.27-1.59-.19-.06-.39-.11-.6-.17,0,.31,0,.57,0,.82,0,4.12,0,8.24,0,12.36,0,.21.03.3.27.3,2.21-.01,4.42,0,6.63-.01.21,0,.42,0,.66,0Zm43.42-13.79c-.23.09-.38.14-.54.21-1.29.52-2.56,1.06-3.86,1.55-.29.11-.41.26-.44.54-.15,1.27-.32,2.54-.47,3.81-.25,2.03-.51,4.06-.76,6.1-.06.52-.11,1.04-.17,1.59.28,0,.5,0,.71,0,1.73,0,3.46-.01,5.19,0,.26,0,.33-.08.32-.32,0-.34.02-.68.02-1.02,0-3.7,0-7.4,0-11.1,0-.43,0-.85,0-1.35Zm-34.08,4.79c.23,2.97.46,5.98.69,9,.11,0,.19.01.27.01,2.18,0,4.36-.01,6.54,0,.29,0,.35-.09.35-.35,0-1.87,0-3.74,0-5.61,0-.62,0-1.24,0-1.86,0-.2-.06-.26-.26-.26-.29,0-.58-.02-.87-.06-2.22-.29-4.43-.58-6.72-.88Zm18.5.28c-.15,0-.27,0-.39.02-.94.15-1.87.34-2.81.44-1.31.14-2.63.22-3.94.29-.51.03-.51-.02-.52.49,0,0,0,.02,0,.03,0,2.4.01,4.8.02,7.2,0,.08.02.15.03.23.06.01.1.02.14.02,2.2,0,4.4,0,6.6,0,.19,0,.23-.08.24-.25.1-1.44.2-2.87.31-4.31.1-1.37.21-2.75.32-4.17Zm9.26-15.27c-.34.09-.62.16-.9.23-1.34.33-2.67.65-4.01.97-.2.05-.27.13-.28.34-.01.47-.07.94-.1,1.4-.18,2.31-.36,4.62-.53,6.93-.04.47-.06.94-.09,1.49,1.56-.49,3.05-.96,4.53-1.44.07-.02.17-.12.18-.2.07-.45.12-.91.17-1.37.27-2.18.54-4.36.82-6.54.07-.59.15-1.18.23-1.83Zm-37,.25c.02.17.02.27.03.37.26,2.06.51,4.12.77,6.18.12.95.24,1.9.36,2.85.03.23.12.34.36.4.61.14,1.22.32,1.82.47.84.21,1.68.41,2.56.62-.03-.42-.05-.79-.07-1.17-.21-2.75-.43-5.5-.64-8.25-.01-.19-.06-.27-.26-.32-1.18-.27-2.35-.56-3.52-.84-.45-.11-.91-.21-1.41-.33Zm-1.97,8.82c0-.12,0-.19,0-.27-.06-.49-.12-.97-.18-1.46-.32-2.52-.63-5.03-.94-7.55-.03-.21-.11-.31-.32-.36-1.32-.3-2.64-.62-3.96-.93-.09-.02-.19-.01-.28-.02-.02.06-.03.09-.03.12,0,2.82.01,5.64,0,8.45,0,.24.12.3.31.36,1.64.51,3.27,1.03,4.91,1.54.15.05.3.07.49.11Zm26.94-6.12c.08.69.14,1.34.22,2,.13,1,.2,1.99-.09,2.97-.53,1.81-1.75,2.68-3.61,2.6-.38-.02-.76,0-1.14-.01-.17,0-.26.05-.25.24,0,.75,0,1.49,0,2.27.13,0,.24.02.34.02,2.36-.02,4.67-.36,6.98-.83.59-.12.58-.13.62-.71.19-2.56.39-5.12.58-7.68.04-.57.07-1.15.11-1.77-1.29.31-2.5.61-3.76.92Zm-18.09,21.05c-.02-.31-.03-.57-.05-.84-.15-2-.31-4-.46-6.01-.06-.83-.13-1.65-.18-2.48-.02-.25-.1-.4-.39-.46-.85-.17-1.69-.38-2.54-.58-.53-.12-1.06-.26-1.63-.4.01.18.02.32.04.45.23,1.85.46,3.71.69,5.56.19,1.52.39,3.03.6,4.54.01.08.14.19.22.19,1.22.01,2.44,0,3.71,0Zm28.44-10.72c-.09-.01-.12-.02-.13-.01-1.39.4-2.78.8-4.16,1.22-.1.03-.22.2-.24.31-.06.49-.08.98-.12,1.46-.16,2.03-.31,4.06-.47,6.09-.04.53-.06,1.07-.09,1.6.09.02.12.04.16.04,1.16,0,2.32,0,3.48,0,.23,0,.26-.13.28-.3.4-3.17.8-6.34,1.2-9.51.04-.3.06-.61.09-.92Zm-7.17-29.81c.9-.2,1.79-.39,2.69-.58.18-.04.26-.13.26-.31-.01-.82.02-1.64-.04-2.46-.16-2.07-.56-4.11-.99-6.14-.11-.5-.23-1-.36-1.55-.17.11-.3.19-.43.29-1.17.92-2.33,1.86-3.5,2.77-.24.19-.26.32-.13.59.85,1.73,1.65,3.48,2.12,5.36.17.65.25,1.33.39,2.04Zm-19.85,18.74c0,.12,0,.22,0,.32.06.86.11,1.71.18,2.57.16,2.12.32,4.24.48,6.37.02.23.1.35.35.39.88.14,1.75.32,2.63.44,1.63.22,3.27.41,4.9.61.19.02.25-.04.25-.22-.01-.65-.01-1.3-.01-1.95,0-.17-.05-.23-.22-.23-.86,0-1.72-.02-2.58.02-1.14.04-1.99-.44-2.62-1.35-.54-.77-.84-1.65-.81-2.59.04-1.13.18-2.25.31-3.37.03-.27-.04-.35-.28-.41-.85-.19-1.69-.39-2.58-.6Zm-1.51-29.64c-.07.21-.14.35-.17.49-.38,1.66-.78,3.32-1.12,4.99-.29,1.42-.45,2.86-.47,4.31,0,.29.1.41.37.46.36.06.72.14,1.08.22.51.11,1.03.22,1.53.32.09-.5.15-.97.27-1.44.48-2,1.41-3.81,2.37-5.6.13-.24.12-.38-.09-.55-1.25-1.05-2.48-2.1-3.78-3.2Zm32.2,36.08c.07,0,.09.02.11,0,1.31-.56,2.62-1.12,3.94-1.67.23-.1.3-.24.3-.48-.01-2.11,0-4.22-.01-6.33,0-.56,0-1.11,0-1.67-.06-.01-.09-.03-.11-.02-.96.23-1.92.46-2.87.71-.1.03-.2.19-.22.3-.08.5-.13,1.01-.19,1.52-.25,2-.5,4-.75,6-.07.54-.12,1.09-.18,1.63Z"/><path class="cls-1" d="m63.58,65.52c0-9.99.01-19.99.02-29.98,0-.43.03-.85.04-1.28,0,10.33,0,20.66,0,30.99,0,.09-.04.18-.06.27Z"/></svg>