<?xml version="1.0" encoding="UTF-8"?><svg id="A3" xmlns="http://www.w3.org/2000/svg" viewBox="0 0 70 70"><defs><style>.cls-1{fill:#fff;}.cls-2{fill:#f3916d;}.cls-3{fill:#724333;}</style></defs><g id="robot"><circle class="cls-3" cx="35" cy="35" r="32.5"/><g id="eyes_1"><polyline class="cls-1" points="20.28 26.45 31.67 28.37 31.67 36.28 20.7 35.02 19.56 32.32 20.28 26.45"/><polyline class="cls-1" points="50.29 26.45 38.9 28.37 38.9 36.28 49.87 35.02 51 32.32 50.29 26.45"/></g><path class="cls-2" d="m53.5,54.84H16.49s0-.03,0-.04c0-4.08,0-8.15,0-12.23,0-2.79,0-5.58,0-8.37,0-.14,0-.28,0-.45.8.19,1.58.37,2.36.55-.03-.28-.08-.53-.08-.79,0-1.83,0-3.67,0-5.5,0-1.8,1.6-3.19,3.38-2.92.8.12,1.59.31,2.38.48.17.04.23,0,.23-.16,0-.05,0-.1.01-.16.06-.62.08-1.25.17-1.86.35-2.36.99-4.66,1.71-6.93.03-.08.07-.16.1-.24,1.65,1.15,3.23,2.36,4.73,3.69,1.25-2.01,2.62-3.91,4.06-5.77.03.04.07.08.1.12,1.15,1.67,2.24,3.37,3.24,5.14.17.3.17.3.44.07.02-.02.04-.03.06-.05,1.05-.79,2.1-1.59,3.16-2.38.43-.32.89-.6,1.37-.93.88,3.14,1.7,6.26,1.73,9.55.09-.01.15-.02.21-.03.62-.13,1.25-.25,1.87-.39.6-.14,1.2-.24,1.81-.11,1.42.29,2.37,1.47,2.38,2.95.01,1.85,0,3.71,0,5.56,0,.16-.03.32-.05.52.57-.14,1.1-.26,1.65-.39,0,.35,0,.68,0,1,0,4.89,0,9.78,0,14.66,0,1.75-.02,3.5-.03,5.24,0,.06.02.11.03.17Zm-8.76-19.82v-.02c.83,0,1.66,0,2.5,0,.36,0,.73,0,1.09,0,.79,0,1.64-.63,1.63-1.73,0-1.59,0-3.17,0-4.76,0-.21-.01-.43-.05-.64-.07-.41-.3-.7-.71-.78-.21-.04-.44-.03-.66,0-.57.1-1.14.23-1.72.35-1.71.36-3.43.72-5.14,1.08-.42.09-.84.19-1.18.48-.59.5-.95,1.09-.93,1.9.02.83.03,1.66,0,2.5-.02.55.39,1.32,1.11,1.51.32.08.67.1,1,.11,1.02.01,2.04,0,3.06,0Zm-18.95-.03s0,.02,0,.02c1.16,0,2.33,0,3.49,0,1.15,0,1.86-.8,1.81-1.81-.04-.75,0-1.51,0-2.26,0-.18,0-.37-.04-.54-.27-1-.9-1.64-1.93-1.86-1.97-.41-3.93-.83-5.9-1.24-.49-.1-.99-.2-1.49-.24-.53-.04-.88.29-.98.81-.03.15-.04.3-.04.45,0,1.29,0,2.59,0,3.88,0,.4-.01.81,0,1.21.04.9.7,1.56,1.59,1.57,1.16.02,2.33,0,3.49,0Zm11.85-4.81c.24-1.27.91-2.22,1.93-2.94.06-.04.11-.12.12-.19.02-.17.03-.34.02-.5-.04-.85-.34-1.62-.66-2.39-.96-2.28-2.21-4.4-3.53-6.49-.02-.03-.04-.07-.06-.11-.06.05-.08.06-.09.08-.66.97-1.33,1.94-1.97,2.93-.81,1.26-1.58,2.55-2.18,3.93-.32.72-.62,1.44-.6,2.26,0,.18.06.26.2.35,1.02.59,1.72,1.45,2.07,2.58.03.1.06.21.1.33.39-.22.8-.22,1.21-.19.19.01.25-.06.27-.25.14-1.24.29-2.48.43-3.72.12-1.13.24-2.26.36-3.39,0-.01.02-.02.05-.06.03.26.07.49.09.72.1,1.22.2,2.43.3,3.65.08.93.16,1.85.23,2.78.02.26-.03.26.28.25.39-.02.77,0,1.12.2.1.05.19.11.31.18Zm-2.47,11.37h0c.21,0,.42,0,.62,0,.65,0,1.3,0,1.95,0,.11,0,.2,0,.18-.16-.12-1.04-.23-2.08-.35-3.12-.14-1.25-.27-2.49-.41-3.74-.06-.54-.11-1.09-.19-1.62-.06-.43-.27-.59-.7-.59-.74,0-1.48.02-2.22,0-.36-.01-.67.25-.71.63-.05.5-.11,1.01-.16,1.51-.11.99-.22,1.99-.33,2.98-.14,1.29-.28,2.58-.43,3.87-.02.18.02.24.21.24.84,0,1.69,0,2.53,0Zm-11.82,11.31c0-.07,0-.12,0-.16-.08-.66-.16-1.31-.25-1.97-.14-1.09-.27-2.19-.41-3.28-.08-.66-.18-1.33-.26-1.99-.02-.13-.08-.17-.19-.2-1.14-.34-2.28-.69-3.43-1.04-.13-.04-.25-.07-.39-.11,0,.2,0,.37,0,.54,0,2.68,0,5.36,0,8.03,0,.13.02.2.18.19,1.44,0,2.87,0,4.31,0,.14,0,.27,0,.43,0Zm28.23-8.96c-.15.06-.25.09-.35.13-.84.34-1.67.69-2.51,1.01-.19.07-.27.17-.29.35-.1.82-.2,1.65-.31,2.47-.17,1.32-.33,2.64-.49,3.96-.04.34-.07.68-.11,1.04.18,0,.32,0,.46,0,1.12,0,2.25,0,3.37,0,.17,0,.21-.05.21-.21,0-.22.01-.44.01-.66,0-2.4,0-4.81,0-7.21,0-.28,0-.56,0-.88Zm-22.15,3.11c.15,1.93.3,3.89.45,5.85.07,0,.12,0,.18,0,1.42,0,2.83,0,4.25,0,.19,0,.23-.06.22-.23,0-1.22,0-2.43,0-3.65,0-.4,0-.81,0-1.21,0-.13-.04-.17-.17-.17-.19,0-.38-.01-.56-.04-1.44-.19-2.88-.38-4.37-.57Zm12.03.18c-.1,0-.18,0-.25.01-.61.1-1.21.22-1.83.28-.85.09-1.71.14-2.56.19-.33.02-.33-.01-.34.32,0,0,0,.01,0,.02,0,1.56,0,3.12.01,4.68,0,.05.01.1.02.15.04,0,.06.02.09.02,1.43,0,2.86,0,4.29,0,.12,0,.15-.05.16-.16.06-.93.13-1.87.2-2.8.07-.89.14-1.79.21-2.71Zm6.02-9.93c-.22.06-.4.1-.59.15-.87.21-1.74.42-2.61.63-.13.03-.18.08-.18.22,0,.3-.04.61-.07.91-.12,1.5-.23,3-.35,4.51-.02.31-.04.61-.06.97,1.02-.32,1.98-.62,2.94-.93.05-.02.11-.08.12-.13.05-.29.08-.59.11-.89.18-1.42.35-2.83.53-4.25.05-.38.09-.77.15-1.19Zm-24.05.16c0,.11.01.18.02.24.17,1.34.33,2.68.5,4.02.08.62.16,1.24.23,1.86.02.15.08.22.23.26.4.09.79.21,1.19.31.54.14,1.09.27,1.66.41-.02-.27-.03-.51-.05-.76-.14-1.79-.28-3.57-.41-5.36,0-.12-.04-.18-.17-.21-.76-.17-1.53-.36-2.29-.54-.29-.07-.59-.14-.91-.21Zm-1.28,5.73c0-.08,0-.13,0-.17-.04-.32-.08-.63-.12-.95-.21-1.64-.41-3.27-.61-4.91-.02-.14-.07-.2-.21-.23-.86-.2-1.72-.41-2.57-.61-.06-.01-.12,0-.18-.01-.01.04-.02.06-.02.08,0,1.83,0,3.66,0,5.5,0,.16.08.2.2.24,1.06.33,2.13.67,3.19,1,.1.03.2.05.32.07Zm17.51-3.98c.05.45.09.87.14,1.3.08.65.13,1.29-.06,1.93-.35,1.17-1.14,1.75-2.35,1.69-.25-.01-.49,0-.74,0-.11,0-.17.04-.17.16,0,.49,0,.97,0,1.47.09,0,.15.01.22.01,1.53-.02,3.04-.24,4.54-.54.38-.08.38-.08.4-.46.12-1.66.25-3.33.38-4.99.03-.37.04-.74.07-1.15-.84.2-1.63.4-2.44.6Zm-11.76,13.68c-.01-.2-.02-.37-.03-.55-.1-1.3-.2-2.6-.3-3.9-.04-.54-.08-1.08-.12-1.61-.01-.16-.07-.26-.25-.3-.55-.11-1.1-.25-1.65-.38-.34-.08-.69-.17-1.06-.26,0,.12.01.21.02.29.15,1.2.3,2.41.45,3.61.12.99.25,1.97.39,2.95,0,.05.09.12.14.13.79,0,1.58,0,2.41,0Zm18.49-6.97c-.06,0-.08-.01-.09,0-.9.26-1.8.52-2.7.8-.07.02-.14.13-.15.2-.04.32-.05.63-.08.95-.1,1.32-.2,2.64-.3,3.96-.03.35-.04.69-.06,1.04.06.01.08.02.1.02.75,0,1.51,0,2.26,0,.15,0,.17-.09.18-.2.26-2.06.52-4.12.78-6.18.02-.2.04-.39.06-.6Zm-4.66-19.38c.58-.13,1.16-.26,1.75-.38.11-.02.17-.08.17-.2,0-.53.02-1.07-.03-1.6-.1-1.35-.36-2.67-.64-3.99-.07-.33-.15-.65-.24-1.01-.11.07-.2.13-.28.19-.76.6-1.51,1.21-2.28,1.8-.16.12-.17.21-.09.38.55,1.12,1.07,2.26,1.38,3.48.11.43.17.86.25,1.32Zm-12.9,12.18c0,.08,0,.14,0,.21.04.56.07,1.11.12,1.67.1,1.38.21,2.76.31,4.14.01.15.07.23.23.25.57.09,1.14.21,1.71.28,1.06.14,2.12.26,3.19.4.12.02.16-.03.16-.15,0-.42,0-.84,0-1.27,0-.11-.03-.15-.15-.15-.56,0-1.12-.01-1.68.01-.74.03-1.29-.29-1.7-.88-.35-.5-.55-1.07-.52-1.68.03-.73.12-1.46.2-2.19.02-.17-.03-.23-.18-.26-.55-.12-1.1-.26-1.68-.39Zm-.98-19.27c-.05.14-.09.23-.11.32-.25,1.08-.5,2.16-.73,3.24-.19.92-.3,1.86-.31,2.8,0,.19.06.27.24.3.24.04.47.09.7.14.33.07.67.14,1,.21.06-.32.1-.63.17-.93.31-1.3.92-2.48,1.54-3.64.08-.16.08-.24-.06-.36-.81-.68-1.61-1.37-2.46-2.08Zm20.93,23.45s.06.01.07,0c.85-.36,1.71-.73,2.56-1.08.15-.06.19-.15.19-.31,0-1.37,0-2.74,0-4.11,0-.36,0-.72,0-1.08-.04,0-.06-.02-.07-.01-.62.15-1.25.3-1.87.46-.06.02-.13.12-.14.2-.05.33-.08.66-.12.99-.16,1.3-.33,2.6-.49,3.9-.04.35-.08.71-.12,1.06Z"/><path class="cls-2" d="m53.58,54.84c0-6.5,0-12.99.01-19.49,0-.28.02-.56.03-.83,0,6.72,0,13.43,0,20.15,0,.06-.02.12-.04.18Z"/></g></svg>