<?xml version="1.0" encoding="UTF-8"?><svg id="A1" xmlns="http://www.w3.org/2000/svg" viewBox="0 0 100 100"><defs><style>.cls-1{fill:#b3a2e3;}</style></defs><path class="cls-1" d="m4.95,84.75c.59-3.01,1.18-6.01,1.75-9.02,1-5.25,1.98-10.51,3-15.76.12-.64.36-1.32.73-1.84,1.3-1.79,2.68-3.51,4.07-5.31,1.29,1.39,2.42,2.9,3.83,4.08,2.29,1.92,2.69,4.65,3.51,7.21,2.63,8.24,5.21,16.5,7.81,24.75.03.11.06.22.13.45-.39.02-.72.05-1.05.05-6.8,0-13.59,0-20.39,0-1.8,0-2.69-.67-3.22-2.39-.05-.16-.12-.32-.18-.47,0-.59,0-1.17,0-1.76Z"/><path class="cls-1" d="m34.74,22.47c.6,1.63,1.18,3.23,1.77,4.84,1.69,4.59,3.34,9.19,5.08,13.76.63,1.65,1.43,2.14,2.94,2.02,1.52-.13,3.05-.13,4.57-.22,2.59-.16,5.19-.36,7.78-.54,3-.21,6.01-.41,9.01-.64.67-.05,1.11.13,1.57.67,2.96,3.43,5.99,6.81,8.97,10.24.38.44.58,1.03.87,1.57-.94.25-1.72.49-2.52.66-1.35.29-2.19,1.32-3.18,2.13-2.77,2.26-5.5,4.57-8.27,6.83-2.45,2.01-3.84,4.62-4.31,7.7-.87,5.73-1.68,11.46-2.48,17.2-.08.57-.3.71-.83.71-6.45-.02-12.9-.02-19.35,0-.52,0-.77-.15-.93-.65-2.75-8.79-5.52-17.57-8.28-26.36-.74-2.34-1.51-4.67-2.19-7.03-.46-1.6-1.7-2.58-2.72-3.72-1.05-1.18-2.12-2.34-3.24-3.44-.43-.42-.37-.71-.06-1.09.82-1.04,1.71-2.03,2.44-3.13.47-.7.81-1.53,1.05-2.35.83-2.95,1.66-5.9,2.35-8.89.44-1.88,1.22-3.4,2.82-4.57,2.43-1.79,4.74-3.73,7.17-5.66Z"/><path class="cls-1" d="m61.77,89.32c.51-3.5,1-6.92,1.49-10.33.21-1.42.5-2.83.61-4.26.15-2.08,1.02-3.59,2.71-4.88,2.45-1.86,4.71-3.97,7.06-5.96.57-.48,1.18-.91,1.74-1.39.87-.74,1.76-.65,2.74-.22.63.27,1.3.44,1.97.63,1.72.48,3.47.89,5.17,1.43,1.24.39,2.48.85,3.62,1.47.48.26.82.98.99,1.56,1.67,5.53,3.32,11.06,4.92,16.61.46,1.61.35,3.18-.81,4.54-.45.53-.96.86-1.69.86-9.99,0-19.99,0-29.98,0-.14,0-.28-.02-.54-.05Z"/><path class="cls-1" d="m60.94,34.29c-.22.05-.32.09-.43.1-3,.2-6,.39-9,.6-1.74.12-3.49.25-5.22.44-.67.08-.9-.17-1.11-.75-1.82-5-3.64-10-5.54-14.97-.36-.95.08-1.35.68-1.83,1.63-1.29,3.25-2.6,4.87-3.9,1.27-1.02,2.54-2.04,3.83-3.03.89-.68,2.54-.25,3.12.91.63,1.24,1.13,2.54,1.63,3.84,2.33,6,4.65,12.01,6.97,18.02.06.16.11.32.19.57Z"/></svg>