<?xml version="1.0" encoding="UTF-8"?><svg id="A1" xmlns="http://www.w3.org/2000/svg" viewBox="0 0 100 100"><defs><style>.cls-1{fill:#00d9d9;}</style></defs><path class="cls-1" d="m64.9,8.03c-.38,1.52-.73,2.94-1.09,4.37-.66,2.61-1.32,5.21-1.98,7.81-.74,2.92-1.48,5.84-2.22,8.76-.82,3.23-1.67,6.46-2.46,9.7-.47,1.93-.98,3.84-1.64,5.71-1.11,3.16-2.67,6.09-4.69,8.77-.93,1.24-1.87,2.46-2.74,3.75-1.13,1.69-2.01,3.52-2.6,5.47-.45,1.51.09,2.41,1.61,2.78.86.21,1.74.34,2.58.61,2.72.87,4.56,2.7,5.73,5.27.82,1.82,1.14,3.75,1.15,5.72.02,3.06-.42,6.03-1.7,8.84-.83,1.83-1.95,3.42-3.6,4.61-1.9,1.36-4.03,1.86-6.35,1.76-1.7-.07-3.3-.51-4.8-1.27-1.96-1-3.3-2.58-4.14-4.6-.81-1.93-1.11-3.96-1.19-6.03-.09-2.4.18-4.77.54-7.13.42-2.82,1.12-5.58,1.75-8.35.59-2.59,1.18-5.17,1.79-7.76.84-3.56,1.7-7.12,2.56-10.68.67-2.75,1.35-5.5,2.03-8.25.9-3.64,1.83-7.28,2.7-10.93.37-1.56.83-3.1,1.48-4.56.94-2.11,2.2-4.02,3.67-5.81,1.46-1.77,3.23-3.2,5.09-4.52,1.92-1.37,4.04-2.36,6.2-3.26.72-.3,1.48-.49,2.31-.76Zm-13.69,68.8c-.01-1.1-.1-2.25-.51-3.35-.37-.99-.99-1.79-1.91-2.3-1.11-.62-2.32-.79-3.58-.68-1.24.1-2.22.68-2.94,1.68-.36.5-.67,1.06-.93,1.63-.5,1.08-.67,2.25-.86,3.41-.32,1.97-.43,3.95.11,5.9.46,1.65,1.46,2.8,3.15,3.28.41.11.84.16,1.26.2,1.48.13,2.79-.23,3.86-1.33.76-.78,1.17-1.74,1.5-2.75.6-1.83.82-3.71.85-5.69Zm-8.08-22.96c-1.49-.05-2.69,1.07-2.74,2.55-.05,1.49,1.11,2.71,2.62,2.76,1.45.05,2.7-1.14,2.75-2.61.05-1.45-1.12-2.65-2.63-2.7Z"/><path class="cls-1" d="m92.85,40.39c-.32.68-.6,1.3-.91,1.9-1.49,2.88-3.35,5.48-5.69,7.74-1.98,1.92-4.22,3.47-6.71,4.65-1.84.87-3.77,1.49-5.78,1.81-1.37.22-2.76.34-4.13.51-2.57.32-5.14.63-7.7.95-1.61.2-3.22.44-4.83.64-1.22.15-2.45.28-3.67.42-.15.02-.3.04-.54.06.5-.81.94-1.57,1.43-2.3,1.22-1.84,2.48-3.66,3.47-5.63.94-1.86,1.82-3.75,2.46-5.73.09-.28.25-.39.52-.42,1.39-.19,2.77-.38,4.16-.58,1.96-.29,3.92-.59,5.88-.87,2.61-.38,5.23-.75,7.85-1.13,1.42-.21,2.84-.42,4.25-.63,3.04-.44,6.07-.87,9.11-1.3.25-.04.5-.05.83-.08Z"/><path class="cls-1" d="m35.82,53.16c-.18.78-.33,1.51-.51,2.24-.43,1.81-.87,3.61-1.3,5.42-.06.24-.15.37-.4.4-2.15.25-4.29.57-6.44.74-1.76.14-3.54.17-5.31.14-2.1-.03-4.2-.16-6.23-.73-2.11-.59-4.11-1.42-5.71-2.99-1.42-1.39-2.22-3.1-2.56-5.04-.33-1.93-.31-3.86.31-5.72.74-2.23,2.16-3.96,4.17-5.18,1.95-1.18,4.1-1.76,6.36-1.99,2.24-.23,4.46-.15,6.66.29,2.45.49,4.69,1.45,6.48,3.26,1.37,1.38,2.15,3.08,2.49,4.97.14.77.14,1.56.21,2.34.02.28.03.56.09.83.12.61.45.9,1.07.98.19.02.38.03.62.05Zm-15.2,3.32c1.55-.05,3.15-.12,4.68-.68,1.91-.7,3.16-1.96,3.34-4.08.09-1.04.03-2.07-.47-3.01-.77-1.43-2.07-2.16-3.56-2.53-2.62-.66-5.26-.66-7.89-.07-1.16.26-2.26.71-3.07,1.63-1.28,1.47-1.4,3.22-.93,5.01.4,1.52,1.53,2.43,2.96,2.98,1.58.61,3.23.72,4.94.75Z"/></svg>